<svg xmlns="http://www.w3.org/2000/svg" version="1.1" width="600px" height="600px" viewBox="0 0 200 200" style="overflow:hidden!important;"><g id="svga-group-wrapper"><g id="svga-group-backs-single"></g><g id="svga-group-humanwrap-move" transform="matrix(1,0,0,1,0,0)"><g id="svga-group-humanwrap"><g id="svga-group-hair-back-move" transform="matrix(1,0,0,1,0,0)"><g id="svga-group-hair-back"></g></g><g id="svga-group-humanbody-back"><path id="SvgjsPath11428" d="M166.5 181.1c-10.9-6.6-27.6-8.4-35-12.1-4.9-2.5-9.1-4.7-8.9-17.8s1.9-42.4 1.9-42.4H75.4s1.6 29.4 1.9 42.4-4.2 15.6-8.9 17.8c-7.4 3.5-24.1 5.4-35 12.1-10.8 6.6-10 18.9-10 18.9v19.7h153.3V200c-.1 0 .7-12.3-10.2-18.9z" fill="#f0c7b1" stroke-width="none" opacity="1"></path></g><g id="svga-group-chinshadow-single"><path id="SvgjsPath11424" d="M124.5 108.9H75.4c.1 1.8 1.6 29.7 1.9 42.3.1 2.6-.1 4.8-.3 6.6 11.9 10.2 23 9 23 9s11.1 1.2 23-8.9c-.3-1.8-.4-4-.4-6.6.2-12.8 1.8-40.6 1.9-42.4z" fill="#d19271" stroke-width="none" opacity="0.65"></path></g><g id="svga-group-humanbody-front"><path id="SvgjsPath11429" d="M78.7 156.8c.5 4.8 1.7 9.4 3.1 13.9.8 2.3 1.6 4.6 2.6 6.9.8 2 1.7 4.2 3.1 5.9.3.4 1 0 .9-.5-.5-2.2-1.6-4.3-2.4-6.4-.9-2.2-1.7-4.4-2.5-6.6-1.5-4.4-2.8-8.9-4.1-13.3-.2-.4-.8-.3-.7.1zm41.3-1c-1.3 8.2-3.9 16.1-5.4 24.2-.1.4.4.5.6.2 3.1-7.7 4.1-16.1 5.1-24.3-.1-.2-.3-.2-.3-.1zm-25.8 11.9c-.9 3.6 1.9 8.6 6.2 7.6.5-.1.4-.8 0-1-1.4-.5-2.9-.9-3.9-2.1-1.1-1.2-1.5-2.9-1.4-4.5 0-.4-.8-.5-.9 0z" fill="#d19271" stroke-width="none" opacity="1"></path><path id="SvgjsPath11430" d="M177.3 219.7c-.1-6.6-.3-13.1-.3-19.7l-.3-.3c.1 0 .1 0 .2.1s.1.2.1.1v-1.4c0-.5-.1-.9-.1-1.4-.1-.9-.3-1.9-.5-2.8-.5-1.8-1.1-3.6-2-5.3-1.7-3.4-4.4-6.2-7.7-8.1-3.6-2.2-7.6-3.8-11.6-5.1-4-1.3-8.1-2.4-12.1-3.5-4-1.2-8.1-2.2-11.8-4.2-1.9-1-3.6-2.1-4.8-3.6-1.2-1.6-1.9-3.5-2.3-5.5-.8-4-.4-8.2-.3-12.4l.7-12.6 1.5-25.2.1-1.4h-1.4c-8.2 0-16.4 0-24.6.1l-24.6.3h-.9l.1.9c.8 11.9 1.6 23.8 2.1 35.7.1 3 .3 6 .2 8.9-.1 2.9-.4 5.9-1.6 8.6-.6 1.3-1.4 2.5-2.4 3.5s-2.3 1.8-3.6 2.4c-2.6 1.3-5.4 2.2-8.3 3-5.8 1.5-11.6 2.8-17.3 4.7-2.8.9-5.7 2-8.4 3.4-1.3.7-2.7 1.4-4 2.4-1.3.9-2.4 1.9-3.5 3.1-2.1 2.3-3.6 5.2-4.5 8.1-.5 1.5-.8 3-1 4.6-.1.8-.1 1.6-.1 2.4v2.3l-.2 17.9v1.3h1.4l38.3.2c12.8.1 25.5.1 38.3 0 12.8-.1 25.6-.1 38.3-.3 12.8-.2 25.6-.5 38.3-.7h.6v-.5zm-77.2-1.6H61.8l-37 .2-.1-16.6v-2.2c0-.7 0-1.4.1-2.1.1-1.4.4-2.8.8-4.2.8-2.7 2.1-5.3 3.9-7.5.9-1.1 2-2.1 3.1-2.9 1.1-.9 2.4-1.6 3.7-2.3 2.6-1.4 5.3-2.5 8.1-3.5 5.6-2 11.4-3.4 17.1-5.1 2.9-.8 5.8-1.7 8.5-3.1 1.3-.7 2.7-1.5 3.8-2.6 1.1-1.1 2-2.4 2.6-3.9 1.2-2.9 1.5-5.9 1.6-8.9 0-3-.1-6-.2-9l-1.3-34.8 23.5.4c7.7.1 15.4.1 23.1.1-.4 7.9-.8 15.9-1.1 23.8-.2 4.2-.2 8.4-.3 12.6 0 4.2-.2 8.5.8 12.8.5 2.1 1.3 4.2 2.8 6 1.4 1.7 3.4 2.9 5.3 3.8 3.9 1.9 8 2.8 12.1 3.8s8.2 2 12.2 3.3c4 1.3 7.9 2.8 11.5 5 3.2 1.9 5.8 4.7 7.5 8 .9 1.6 1.5 3.4 1.9 5.2.2.9.4 1.8.4 2.7.1.5.1.9.1 1.4V200l-.3 19c-12.6-.2-25.1-.5-37.7-.7-12.7-.1-25.5-.1-38.2-.2z" fill="#c27b55" stroke-width="none" opacity="1"></path></g><g id="svga-group-clothes-single"><path id="SvgjsPath11308" d="M179.3 220.1c0-17.5-1.6-26.7-1.6-26.7-3-14-21.9-18.2-30.7-20.1-15.2-3-20.1-7.2-20.1-7.2s-6.4 16-27.5 16-26.8-16.6-26.8-16.6-5.3 4.1-21.2 7.1c-8.7 1.9-26.3 6.9-29.3 20.9 0 0-1.6 9.2-1.6 26.7h158.8z" fill="#006e66" stroke-width="none" opacity="1"></path><path id="SvgjsPath11309" d="M179.6 209.2c-.1-3.6-.2-7.3-.5-10.9l-.3-2.7c-.1-.9-.2-1.8-.4-2.8-.4-1.9-1.1-3.6-2.1-5.3-1.9-3.3-4.9-5.9-8-7.9-3.2-2-6.6-3.5-10.1-4.7-3.5-1.2-7.1-2.1-10.6-2.9-3.5-.7-7-1.6-10.4-2.7-1.7-.6-3.3-1.2-4.9-1.9-.8-.4-1.6-.7-2.4-1.1-.4-.2-.8-.4-1.1-.6-.3-.2-.7-.5-1-.6-.1-.1-.2-.1-.3-.2-.7-.3-1.5 0-1.8.7-.5 1.1-1.2 2.3-1.9 3.4-.8 1.1-1.6 2.1-2.5 3.1-1.8 1.9-3.9 3.6-6.2 5-4.6 2.7-10.1 4-15.5 4.1-5.4.1-11-1-15.7-3.8-4.7-2.8-8.6-7.1-10.7-12.1 0 0 0-.1-.1-.1-.2-.2-.5-.3-.7-.1-1.4 1-3.1 1.8-4.7 2.4-1.7.7-3.4 1.3-5.1 1.8-3.5 1.1-7 1.9-10.5 2.6-7.1 1.5-14.3 3.5-20.6 7.6-3.1 2-6 4.6-7.9 7.9-1 1.6-1.7 3.4-2.2 5.3-.1.2-.1.5-.2.7l-.1.7-.2 1.4-.3 2.7c-.8 7.3-1.1 14.6-1.2 21.9 0 .7.6 1.4 1.3 1.4l40 .2c13.3 0 26.7-.1 39.9-.2l39.8-.3 36.9-.6 2.2-.4c.1-3.8.1-7.3.1-11zm-20.5 10.4-20-.3-39.7-.5c-13.2-.1-26.3-.2-39.4-.2l-38 .2c0-6.8.1-13.6.7-20.3l.3-2.7.1-1.3.1-.7c0-.2.1-.4.1-.6.4-1.6 1-3.3 1.8-4.8 1.7-3 4.2-5.6 7.1-7.6 2.9-2 6.2-3.6 9.5-4.9s6.8-2.3 10.4-3c3.6-.7 7.1-1.6 10.6-2.7 1.7-.6 3.5-1.2 5.2-1.9 1.5-.6 3-1.3 4.5-2.2 1.1 2.5 2.5 4.7 4.2 6.8 1.8 2.2 4 4.1 6.5 5.6 4.9 3.1 10.7 4.4 16.4 4.5 5.7.1 11.6-1 16.7-3.8 2.6-1.4 4.9-3.2 6.9-5.3 1.7-1.8 3.1-3.6 4.3-5.8.4.2.8.5 1.2.7.8.4 1.7.9 2.5 1.2 1.7.8 3.4 1.4 5.2 2 3.5 1.1 7.1 2 10.7 2.7 7 1.4 14 3.3 20.1 6.9 3 1.8 5.7 4.1 7.6 7 .9 1.4 1.6 3.1 2.1 4.7.2.8.3 1.7.4 2.6l.3 2.7c.4 3.6.8 7.2 1 10.8.2 3.6.4 7.3.6 10.8l-20-.6zM38.3 188.5c1.4 3.2 2.4 6.5 3.2 9.9.4 1.7.8 3.4 1.1 5.1.3 1.7.6 3.4.9 5.2.5 3.2 1 6.4 1.4 9.6h.2c.2-3.2.2-6.5 0-9.8-.3-3.5-.8-7.1-1.6-10.6-.4-1.7-.9-3.5-1.5-5.2-.6-1.7-1.3-3.4-2.2-4.9-.8-1.6-1.8-3.1-3-4.5-1-1.1-2-2.2-3.2-3.1-.1 0-.1.1-.2.1 1 1.1 1.8 2.3 2.6 3.5.8 1.5 1.6 3.1 2.3 4.7zm118.3 20.1c.3-1.7.6-3.5.9-5.2.3-1.7.6-3.4 1.1-5.1.8-3.4 1.8-6.7 3.2-9.9.7-1.6 1.5-3.1 2.4-4.6.7-1.1 1.5-2.3 2.4-3.3-.1-.1-.2-.1-.2-.2-1.1.8-2.1 1.8-3 2.9-1.1 1.4-2.1 2.9-3 4.5-.9 1.6-1.6 3.2-2.2 4.9-.6 1.7-1.1 3.4-1.5 5.2-.8 3.5-1.3 7-1.6 10.6-.2 3.5-.3 7.1 0 10.6.5-3.5 1-6.9 1.5-10.4zM116 183.8c-5.2 2.9-11.3 3.9-17.3 3.5-1.5-.1-3-.2-4.5-.4s-2.9-.5-4.4-.9c-1.4-.4-2.8-.9-4.2-1.5-1.3-.6-2.7-1.3-3.9-2.1-2.5-1.6-4.8-3.6-6.7-5.8-2-2.2-3.7-4.7-5-7.3 2 5.6 5.8 10.7 10.9 14.3 2.5 1.8 5.4 3.2 8.4 4.1 1.5.4 3.1.8 4.6 1 1.6.2 3.1.4 4.7.4 3.1.1 6.3 0 9.4-.7 3.1-.7 6.1-1.8 8.8-3.4 2.7-1.6 5.1-3.6 7.2-5.8 2.1-2.2 4-4.6 5.6-7.1-4 4.5-8.3 8.8-13.6 11.7z" fill="#004f4a" stroke-width="none" opacity="1"></path></g><g id="svga-group-head" transform="matrix(1,0,0,1,0,0)"><g id="svga-group-ears-left-move" transform="matrix(1,0,0,1,0,0)"><g id="svga-group-ears-left"><path id="SvgjsPath11318" d="M58.8 91.7s-2.6-4.9-5.3-5.7-4.4.7-3.9 6.6 5.2 23.2 10.6 22.2c5.4-1.1.9-19.6-1.4-23.1z" fill="#f0c7b1" stroke-width="none" opacity="1"></path><path id="SvgjsPath11319" d="M59.8 93.6c.3.7.6 1.5.8 2.2.5 1.5 1 3.1 1.4 4.8.4 1.6.7 3.4.9 5.2.1.9.2 1.8.2 2.7 0 .9 0 1.8-.1 2.8-.1.9-.3 1.8-.7 2.5-.3.7-.8 1.2-1.2 1.5-.9.5-1.9.4-2.8-.1-.9-.5-1.8-1.5-2.6-2.7s-1.4-2.5-2-4c-.6-1.4-1.1-3-1.6-4.5s-1-3.1-1.4-4.7-.8-3.3-1.1-5-.5-3.6-.3-5.4c.1-.9.3-1.8.7-2.4s.8-1 1.3-1.2.9-.2 1.4-.1.9.3 1.4.6c.9.6 1.7 1.5 2.5 2.5s1.5 2.2 2.2 3.4c.4.5.7 1.2 1 1.9zm-3.2-5c-.8-.9-1.6-1.6-2.5-1.9-.8-.3-1.7-.4-2.5-.1-.4.2-.7.4-1 .9s-.5 1.1-.6 1.8c-.2 1.4-.2 3.2.1 4.8.2 1.7.5 3.3.9 5 .8 3.2 1.8 6.3 3.1 8.9.6 1.3 1.3 2.5 2 3.5s1.5 1.8 2.3 2.2c.4.2.8.3 1.2.3s.8-.1 1.2-.4c.3-.2.7-.6.9-1.1s.4-1.2.5-1.9c.2-1.4.1-3.1 0-4.8-.1-1.7-.4-3.3-.7-5s-.7-3.3-1.1-4.9c-.4-1.6-1-3.1-1.7-4.3-.6-1-1.3-2.1-2.1-3z" fill="#e1ac8f" stroke-width="none" opacity="1"></path><path id="SvgjsPath11320" d="M52.4 89.6c2.3 1.5 4.4 5.7 5.4 9.9v.1c0 .3-.2.4-.2.1-.4-1.2-.9-1.2-1.5 0-.1.8-.1 1.5.1 2.3.2.7.4 1.4.7 2 .5 1.2 1.2 2.1 1.8 3.1.2.3 0 .7-.2.6-1.4-1.1-3.4-4.7-3-7.8.2-1.5 1-2.3 1.6-1.7-.8-2.1-1.7-4-2.8-5.5-.6-.8-2-2.7-2.7-2.4-1.3.6-.6 4.8-.5 6.6 0 .3-.2.4-.3.1-.7-3.3-.8-9 1.6-7.4z" fill="#d19271" stroke-width="none" opacity="1"></path><path id="SvgjsPath11321" d="M58 108.6c-2.4-.9-4.2-4.8-5.2-9-.6-2.6-1.8-8.6.5-8.5.2 0 .3.5.1.6-2.2 1.1.2 9.2.9 11.1 1 2.6 2.2 4.4 3.8 5.4.1.1 0 .5-.1.4z" fill="#d19271" stroke-width="none" opacity="1"></path></g></g><g id="svga-group-ears-right-move" transform="matrix(1,0,0,1,0,0)"><g id="svga-group-ears-right"><path id="SvgjsPath11322" d="M141.2 91.7s2.6-4.9 5.3-5.7 4.4.7 3.9 6.6-5.2 23.2-10.6 22.2c-5.4-1.1-.9-19.6 1.4-23.1z" fill="#f0c7b1" stroke-width="none" opacity="1"></path><path id="SvgjsPath11323" d="M141.1 91.7c.7-1.2 1.4-2.4 2.2-3.4s1.6-1.9 2.5-2.5c.5-.3.9-.5 1.4-.6s.9-.1 1.4.1.9.5 1.3 1.2c.4.6.6 1.5.7 2.4.2 1.8 0 3.7-.3 5.4-.3 1.7-.7 3.4-1.1 5-.4 1.6-.9 3.2-1.4 4.7s-1 3.1-1.6 4.5-1.3 2.8-2 4c-.8 1.2-1.6 2.2-2.6 2.7-.9.5-1.9.7-2.8.1-.5-.3-.9-.8-1.2-1.5s-.5-1.6-.7-2.5c-.1-.9-.1-1.8-.1-2.8 0-.9.1-1.8.2-2.7.2-1.8.5-3.5.9-5.2s.9-3.2 1.4-4.8c.3-.8.5-1.5.8-2.2.4-.7.7-1.4 1-1.9zm.1.1c-.7 1.2-1.2 2.7-1.7 4.3-.4 1.6-.8 3.2-1.1 4.9-.3 1.7-.5 3.3-.7 5-.1 1.6-.2 3.3 0 4.8.1.7.3 1.4.5 1.9s.6.9.9 1.1c.3.3.8.3 1.2.4.4 0 .8-.1 1.2-.3.8-.4 1.6-1.2 2.3-2.2s1.4-2.2 2-3.5c1.3-2.6 2.3-5.7 3.1-8.9.4-1.6.7-3.3.9-5 .2-1.6.3-3.4.1-4.8-.1-.7-.3-1.3-.6-1.8-.3-.4-.6-.7-1-.9-.8-.3-1.7-.2-2.5.1-.8.4-1.7 1-2.5 1.9-.7.7-1.4 1.8-2.1 3z" fill="#e1ac8f" stroke-width="none" opacity="1"></path><path id="SvgjsPath11324" d="M147.6 89.6c-2.3 1.5-4.4 5.7-5.4 9.9v.1c0 .3.2.4.2.1.4-1.2.9-1.2 1.5 0 .1.8.1 1.5-.1 2.3-.2.7-.4 1.4-.7 2-.5 1.2-1.2 2.1-1.8 3.1-.2.3 0 .7.2.6 1.4-1.1 3.4-4.7 3-7.8-.2-1.5-1-2.3-1.6-1.7.8-2.1 1.7-4 2.8-5.5.6-.8 2-2.7 2.7-2.4 1.3.6.6 4.8.5 6.6 0 .3.2.4.3.1.7-3.3.8-9-1.6-7.4z" fill="#d19271" stroke-width="none" opacity="1"></path><path id="SvgjsPath11325" d="M142 108.6c2.4-.9 4.2-4.8 5.2-9 .6-2.5 1.8-8.5-.5-8.5-.2 0-.3.5-.1.6 2.2 1.1-.2 9.2-.9 11.1-1 2.6-2.2 4.4-3.8 5.4-.1.1 0 .5.1.4z" fill="#d19271" stroke-width="none" opacity="1"></path></g></g><g id="svga-group-faceshape-wrap"><g id="svga-group-faceshape-single"><path id="SvgjsPath11408" d="M143.2 82v-.3c-1.3-29.9-20.7-46.4-43.2-46.4S58.1 51.8 56.9 81.7v.3c0 3 0 30.2 5.7 41.9C77.7 155 100 153.7 100 153.7s22.3 1.4 37.5-29.8c5.7-11.7 5.7-38.9 5.7-41.9z" fill="#f0c7b1" stroke-width="none" opacity="1"></path><path id="SvgjsPath11409" d="M137.5 123.9c5.7-11.7 5.7-38.9 5.7-41.9v-.3c-1.3-29.9-20.7-46.4-43.2-46.4S58.1 51.8 56.9 81.7v.3c0 3 0 30.2 5.7 41.9C77.7 155 100 153.7 100 153.7s22.3 1.4 37.5-29.8zM87.7 148c-4.2-1.7-8.5-5.5-11.8-8.8l-2.4-2.5-2.2-2.8c-.8-.9-1.4-1.9-2.1-2.9-.6-1-1.3-1.9-2-3l-1.7-3.1c-.6-1-1.2-2.1-1.6-3.1-1-2-1.6-4.3-2.3-6.6-1.2-4.6-2-9.4-2.6-14.2-.6-4.8-1-9.7-1.2-14.5-.1-2.4-.2-4.9 0-7.2.1-1.2.1-2.4.3-3.6l.6-3.6.1-.9.2-.9.5-1.7.5-1.7c.1-.6.4-1.1.6-1.7.4-1.1.8-2.3 1.3-3.4l1.6-3.2c2.3-4.2 5.3-8 8.8-11.1 3.5-3.1 7.6-5.6 12-7.2s9-2.5 13.6-2.7 9.3.3 13.8 1.5c8.9 2.4 17 7.9 22.6 15.7l2 3c.6 1 1.1 2.1 1.7 3.2.6 1.1 1 2.2 1.5 3.3.4 1.1.9 2.2 1.2 3.4l1 3.5c.2 1.2.5 2.4.7 3.6l.3 1.8.2 1.9c.1 1.5.2 3.8.2 5.3-.1 7.1-.6 14.2-1.8 21.2-.6 3.8-1.4 7.5-2.5 11.2-.3.9-.5 1.8-.9 2.7-.4.9-.6 1.8-1 2.6-.7 1.6-1.8 3.2-2.7 4.9-.5.8-.9 1.6-1.5 2.4l-1.6 2.3c-.6.8-1 1.6-1.6 2.3l-1.8 2.1c-1.1 1.5-2.5 2.7-3.7 4.1-.6.7-3.3 3-4.1 3.5 0 0-2.3 1.8-7.3 4.5-1.2.6-2.4 1.2-3.7 1.6-4.3 1.7-9.1 3.7-21.2-1.2z" fill="#c27b55" stroke-width="none" opacity="1"></path></g></g><g id="svga-group-mouth-single-move" transform="matrix(1,0,0,1,0,0)"><g id="svga-group-mouth-single"><path id="SvgjsPath11499" d="M84.13 121.38s.02 2.5 1.11 4.36c0 0 4.32 4.53 9.9 8.4.19.14 8.24 1.16 10.36.41 0 0 8.36-5.19 10.19-9.12 0 0 .66-1.94.41-3.27 0 0-6.34 1.76-9.33 2.2-2.99.45-10.62 0-14.41-.57-3.8-.57-7.27-1.92-8.23-2.41z" fill="#000000" stroke-width="none" opacity="1" transform="translate(0 2)"></path><path id="SvgjsPath11500" d="M106.75 124.35c-2.99.45-10.62 0-14.41-.57-3.79-.57-7.26-1.92-8.22-2.41 0 0 .02 2.5 1.11 4.36l.19.19c1.51 1.07 3.66 2.31 6.2 2.99 5.05 1.36 15.17 1.9 22.14-1.92.58-.32 1.09-.63 1.57-.95.14-.21.25-.43.34-.64 0 0 .66-1.94.41-3.27.01.02-6.34 1.79-9.33 2.22z" fill="#ffffff" stroke-width="none" opacity="1" transform="translate(0 2)"></path><path id="SvgjsPath11501" d="M116.59 121.88c.16-.2 0-.49-.28-.48-1.71.52-2.76.73-4.08 1.09-1.18.32-9.11 1.01-11.89.99-9.17-.2-13.39-1.67-16.1-2.4-.22-.06-.44.18-.34.34-.21 1.26 1.06 4.43 1.06 4.45 2.41 3.32 6.15 6.2 9.6 8.45 2.45 1.59 9.23 1.33 10.89.76 2.36-.89 4.78-3.17 6.36-4.68 1.46-1.4 3.54-4 4.23-5.1.29-.44.46-.97.57-1.48.13-.52.3-1.38-.02-1.94zm-5.54 8.28c-2.42 2.24-5.67 3.61-5.82 3.62-1.9.17-3.8.26-5.72.19-1.36-.05-4.19-.4-4.31-.48-1.83-.93-3.63-2.15-5.26-3.53-1.59-1.34-3.52-2.92-4.56-4.42-.65-1.11-1.02-2.25-.86-3.72 4.7 2.47 10.68 3.54 15.92 3.58 2.85.02 5.63-.36 8.4-.92 2.13-.43 5.04-.89 7-2.08-.03.32-.02.66-.07.97-.09.56.23 2.27-4.72 6.79z" fill="#da7c87" stroke-width="none" opacity="1" transform="translate(0 2)"></path></g></g><g id="svga-group-eyes-left-move" transform="matrix(1,0,0,1,0,0)"><g id="svga-group-eyes-left"><g id="svga-group-eyesback-left"><path id="SvgjsPath11364" d="M89.5 94.7s-.9-1.9-2.9-3.3c-2-1.3-4.8-2.7-9-1.7-4.2 1-6.6 3.3-8.1 5.3 0 0 .4.5 1.4 1.1 1 .6 4.7 2.7 8.8 2.5 4.1-.2 7.8-2.5 8.5-2.9.7-.3 1.3-1 1.3-1z" fill="#ffffff" stroke-width="none" opacity="1"></path></g><g id="svga-group-eyesiriswrapper-left" transform="matrix(1,0,0,1,0,0)"><g id="svga-group-eyesiriscontrol-left" transform="matrix(1,0,0,1,0,0)"><g id="svga-group-eyesiris-left"><path id="SvgjsPath11445" d="M80.1 88.4c2.8 0 5.2 2.3 5.2 5.2s-2.3 5.2-5.2 5.2-5.2-2.3-5.2-5.2 2.3-5.2 5.2-5.2z" fill="#4e60a3" stroke-width="none" opacity="1"></path><path id="SvgjsPath11446" d="M80.1 90.8c1.5 0 2.8 1.2 2.8 2.8s-1.2 2.8-2.8 2.8-2.8-1.2-2.8-2.8 1.2-2.8 2.8-2.8z" fill="#000000" stroke-width="none" opacity="1"></path><path id="SvgjsPath11447" d="m79.4 91.3-.6-.6c-.2-.2-.4-.3-.7-.3-.2 0-.5.1-.7.3-.2.2-.3.4-.3.7s.1.5.3.7l.6.6c.2.2.4.3.7.3.2 0 .5-.1.7-.3.3-.5.4-1.1 0-1.4zm2.5 4.7c.9 0 .9-1.4 0-1.4s-.8 1.4 0 1.4z" fill="#ffffff" stroke-width="none" opacity="1"></path></g></g></g><g id="svga-group-eyesfront-left"><path id="SvgjsPath11372" d="M69.4 94.6c0 6.4 4.7 11.5 10.6 11.5s10.6-5.2 10.6-11.5S85.9 83.1 80 83.1s-10.6 5.1-10.6 11.5zm.1.5c1.5-1.9 4-4.3 8.1-5.3s7 .4 9 1.7c2 1.3 2.9 3.3 2.9 3.3s-.6.6-1.3 1.1c-.7.4-4.4 2.7-8.5 2.9-4.1.2-7.8-1.9-8.8-2.5-.9-.7-1.4-1.2-1.4-1.2z" fill="#f0c7b1" stroke-width="none" opacity="1"></path><path id="SvgjsPath11373" d="M89 91.7c-4.4-3.6-9.7-4.3-15-2.6-.2.1-.3-.2-.1-.3 5-2.2 11.3-.9 15.2 2.8.1 0 0 .1-.1.1z" fill="#e1ac8f" stroke-width="none" opacity="1"></path><path id="SvgjsPath11374" d="M68.9 96c.2-.2.5-.4.7-.6 5.1 5.2 15 4.5 20-.4 0 0 0 .1.1.1.1.2.4 0 .3-.2 0-.1-.1-.1-.1-.2.1-.1 0-.3-.2-.3-2.1-3.6-6.3-5.4-10.4-5.2-3.9.2-9.2 2.8-10.7 6.6-.2.3.1.4.3.2zm.9-.8c1.2-1.1 2.2-2.4 3.7-3.3 1.6-1 3.3-1.7 5.2-2 4.2-.7 8.4 1.3 10.6 4.8-2.8 2.1-5.9 3.6-9.5 3.7-3.9.1-6.7-1.3-10-3.2z" fill="#000000" stroke-width="none" opacity="1"></path></g></g></g><g id="svga-group-eyes-right-move" transform="matrix(1,0,0,1,0,0)"><g id="svga-group-eyes-right"><g id="svga-group-eyesback-right"><path id="SvgjsPath11365" d="M110.5 94.7s.9-1.9 2.9-3.3c2-1.3 4.8-2.7 9-1.7 4.2 1 6.6 3.3 8.1 5.3 0 0-.4.5-1.4 1.1-1 .6-4.7 2.7-8.8 2.5-4.1-.2-7.8-2.5-8.5-2.9-.7-.3-1.3-1-1.3-1z" fill="#ffffff" stroke-width="none" opacity="1"></path></g><g id="svga-group-eyesiriswrapper-right" transform="matrix(1,0,0,1,0,0)"><g id="svga-group-eyesiriscontrol-right" transform="matrix(1,0,0,1,0,0)"><g id="svga-group-eyesiris-right"><path id="SvgjsPath11448" d="M119.9 88.4c2.8 0 5.2 2.3 5.2 5.2s-2.3 5.2-5.2 5.2-5.2-2.3-5.2-5.2 2.4-5.2 5.2-5.2z" fill="#4e60a3" stroke-width="none" opacity="1"></path><path id="SvgjsPath11449" d="M119.9 90.8c1.5 0 2.8 1.2 2.8 2.8s-1.2 2.8-2.8 2.8-2.8-1.2-2.8-2.8 1.3-2.8 2.8-2.8z" fill="#000000" stroke-width="none" opacity="1"></path><path id="SvgjsPath11450" d="m119.3 91.3-.6-.6c-.2-.2-.4-.3-.7-.3-.2 0-.5.1-.7.3-.2.2-.3.4-.3.7s.1.5.3.7l.6.6c.2.2.4.3.7.3.2 0 .5-.1.7-.3.3-.5.4-1.1 0-1.4zm2.5 4.7c.9 0 .9-1.4 0-1.4s-.9 1.4 0 1.4z" fill="#ffffff" stroke-width="none" opacity="1"></path></g></g></g><g id="svga-group-eyesfront-right"><path id="SvgjsPath11375" d="M120 83.1c-5.9 0-10.6 5.2-10.6 11.5s4.7 11.5 10.6 11.5 10.6-5.2 10.6-11.5-4.8-11.5-10.6-11.5zm9.1 13.1c-1 .6-4.7 2.7-8.8 2.5-4.1-.2-7.8-2.5-8.5-2.9-.7-.4-1.3-1.1-1.3-1.1s.9-1.9 2.9-3.3c2-1.3 4.8-2.7 9-1.7s6.6 3.3 8.1 5.3c0 .1-.5.6-1.4 1.2z" fill="#f0c7b1" stroke-width="none" opacity="1"></path><path id="SvgjsPath11378" d="M111 91.7c4.4-3.6 9.7-4.3 15-2.6.2.1.3-.2.1-.3-5-2.2-11.3-.9-15.2 2.8-.1 0 0 .1.1.1z" fill="#e1ac8f" stroke-width="none" opacity="1"></path><path id="SvgjsPath11379" d="M131.5 95.8c-1.5-3.8-6.8-6.4-10.7-6.6-4.1-.2-8.3 1.6-10.4 5.2-.1 0-.3.2-.2.3 0 .1-.1.1-.1.2-.1.2.2.4.3.2 0 0 0-.1.1-.1 5 5 14.9 5.7 20 .4.2.2.4.4.7.6.1.2.4.1.3-.2zm-11.3 2.6c-3.6-.1-6.7-1.7-9.5-3.7 2.2-3.6 6.4-5.5 10.6-4.8 1.8.3 3.6 1 5.2 2 1.5.9 2.5 2.2 3.7 3.3-3.3 1.9-6.1 3.3-10 3.2z" fill="#000000" stroke-width="none" opacity="1"></path></g></g></g><g id="svga-group-facehighlight-single"></g><g id="svga-group-eyebrows-left-move" transform="matrix(1,0,0,1,0,0)"><g id="svga-group-eyebrows-left-rotate" transform="matrix(1,1.7453292519943295e-9,-1.7453292519943295e-9,1,1.4176201545978984e-7,-1.3606350535155798e-7)"><g id="svga-group-eyebrows-left"><path id="SvgjsPath11284" d="M67 82.5c.1-.3.3-.6.5-.8.1-.2.3-.5.5-.7.2-.2.4-.4.7-.6.5-.9 1.7-1.6 2.5-2.1.9-.5 1.8-.9 2.9-.9 1-.2 2.1-.2 2.9.2.4 0 .7.1 1 .3 1.1-.1 2.3.2 3.3.4 1.4.3 2.8.6 4.1 1.2 1.4 0 2.8.1 4.1.5h.2c.1 0 .2.1.2.1h.1c.1 0 .2.1.3.2.1.1 0 .3 0 .4v.1c0 .2 0 .4-.1.6 0 .6-.1 1.1-.5 1.6 0 .1 0 .2-.1.3-.1.5-.2 1.1-.7 1.4-.2.2-.5.3-.8.3-.1 0-.2 0-.3-.1h-.6c-.6.2-1.4 0-1.9-.1-.6-.1-1.2-.3-1.7-.6-1.8-.3-3.5-.8-5.3-1.2-1.6-.4-4-.4-5.4-1.3-.7.1-1.3.2-2 .2-.3 0-.7.1-1.1 0-.2 0-.5 0-.7-.2 0 0-.1 0-.1-.1h-.1l-.4.4c-.3.3-.7.7-1.2.8-.1.2-.3 0-.3-.3z" fill="#3b3128" stroke-width="none" opacity="1"></path><path id="SvgjsPath11285" d="M87.7 83c-.1-.6-.2-1.2-.4-1.7 0-.2.2-.3.3-.1.7 1 .9 2.8.2 3.9-.1.2-.3.1-.3-.1.1-.8.2-1.4.2-2zm-3.4-3.2c1.3.8 2.1 2.6 2.1 4 0 .2-.3.3-.3.1-.2-.7-.4-1.3-.7-1.9-.3-.7-.9-1.2-1.3-1.9-.3-.2 0-.4.2-.3zm-3.3-.7c2.2.8 3.8 3.2 4.2 5.3 0 .2-.2.2-.3.1-.4-1-.9-2-1.7-2.8-.7-.9-1.6-1.4-2.5-2.2-.2-.1.1-.5.3-.4zm-4.9-.8c2.4.6 4.8 2.6 5.8 4.7.1.2-.3.4-.4.2-.8-1-1.6-1.9-2.6-2.7-.9-.7-2-1.2-3-1.8-.2-.1-.1-.4.2-.4zM67.4 82c1.6-1.8 3.8-4.3 6.5-4 .2 0 .2.3 0 .3-2.6.2-4.3 2.5-6.3 3.9-.2.1-.4-.1-.2-.2z" fill="#4a423a" stroke-width="none" opacity="1"></path><path id="SvgjsPath11286" d="M90.9 80.6c-.1-.3-.5-.3-.6 0-.3 1.1-.3 2.4-1.2 3.3-.6.7-1.5.8-2.4.7.3-1.5.2-3.7-.8-4.9-.2-.2-.5-.1-.4.2 0 .8.4 1.6.5 2.4.1.8.2 1.5.2 2.3-.1 0-.2 0-.3-.1-.3-2-1.3-4.1-2.8-5.5 2.3.5 4.6.9 6.9 1.1.1 0 .2-.2.1-.2-2.6-.9-5.3-1.4-8-2-2.4-.5-5.1-1.4-7.6-1.5-2.1-.1-3.6.9-5 2.2-1.5 1.4-3.1 3.1-4.1 4.9l-.2.2c-.1.1-.2.3-.1.4 0 0 0 .1-.1.1-.2.4.3.7.6.4.1 0 .2 0 .3-.1 1.4-.7 2.5-1.4 4.1-1.6 1.3-.2 2.7-.1 4 .1 2.9.4 5.6 1.3 8.3 2.1 2.1.6 4.9 1.7 6.9.2 1.7-1 1.9-3.1 1.7-4.7zm-13.4 1.3c-.5-.1-1.1-.2-1.7-.3.1-1.1-.3-2.3-.8-3.3.7.6 1.4 1.2 2 1.9.6.6.9 1.4 1.5 2-.4-.1-.7-.2-1-.3zM70 79.5c1.2-1.1 2.5-1.7 4-1.9.2.8.6 1.6.7 2.4l.3 1.5c-.3 0-.7-.1-1-.1-.5-.9-1.3-1.8-2.3-2.1-.2-.1-.3.2-.2.4.4.4.9.8 1.3 1.2.1.2.2.3.4.5-1.9-.1-3.8.1-5.4.8.6-1 1.3-1.9 2.2-2.7zm15.2 4.8c-.2-.1-.4-.1-.6-.2-.4-.1-.9-.3-1.3-.4-.8-1.8-2.1-3.6-3.7-4.8-.2-.1-.4.1-.3.2 1.2 1.4 2.2 2.9 3.3 4.4-1.1-.4-2.2-.7-3.2-1.1-.2-1.1-1.2-2.2-1.9-3-.7-.7-1.5-1.4-2.4-1.9.4 0 .8.1 1.3.1 2 .3 4 .8 6 1.2v.1c.7 1.1 1.5 2.2 2.1 3.3.2.7.4 1.4.7 2.1z" fill="#2c2219" stroke-width="none" opacity="1"></path></g></g></g><g id="svga-group-eyebrows-right-move" transform="matrix(1,0,0,1,0,0)"><g id="svga-group-eyebrows-right-rotate" transform="matrix(1,1.7453292519943295e-9,-1.7453292519943295e-9,1,1.4176202967064455e-7,-2.127084570702209e-7)"><g id="svga-group-eyebrows-right"><path id="SvgjsPath11287" d="M133 82.5c-.1-.3-.3-.6-.5-.8-.1-.2-.3-.5-.5-.7-.2-.2-.4-.4-.7-.6-.5-.9-1.7-1.6-2.5-2.1-.9-.5-1.8-.9-2.9-.9-1-.2-2.1-.2-2.9.2-.4 0-.7.1-1 .3-1.1-.1-2.3.2-3.3.4-1.4.3-2.8.6-4.1 1.2-1.4 0-2.8.1-4.1.5h-.2c-.1 0-.2.1-.2.1h-.1c-.1 0-.2.1-.3.2-.1.1 0 .3 0 .4v.1c0 .2 0 .4.1.6 0 .6.1 1.1.5 1.6 0 .1 0 .2.1.3.1.5.2 1.1.7 1.4.2.2.5.3.8.3.1 0 .2 0 .3-.1h.6c.6.2 1.4 0 1.9-.1.6-.1 1.2-.3 1.7-.6 1.8-.3 3.5-.8 5.3-1.2 1.6-.4 4-.4 5.4-1.3.7.1 1.4.2 2 .2.3 0 .7.1 1.1 0 .2 0 .5 0 .7-.2 0 0 .1 0 .1-.1h.1l.4.4c.3.3.7.7 1.2.8.1.2.3 0 .3-.3z" fill="#3b3128" stroke-width="none" opacity="1"></path><path id="SvgjsPath11288" d="M112.3 83c.1-.6.2-1.2.4-1.7 0-.2-.2-.3-.3-.1-.7 1-.9 2.8-.2 3.9.1.2.3.1.3-.1-.1-.8-.2-1.4-.2-2zm3.4-3.2c-1.3.8-2.1 2.6-2.1 4 0 .2.3.3.3.1.2-.7.4-1.3.7-1.9.3-.7.9-1.2 1.3-1.9.3-.2 0-.4-.2-.3zm3.3-.7c-2.2.8-3.8 3.2-4.2 5.3 0 .2.2.2.3.1.4-1 .9-2 1.7-2.8.7-.9 1.6-1.4 2.5-2.2.2-.1-.1-.5-.3-.4zm4.9-.8c-2.4.6-4.8 2.6-5.8 4.7-.1.2.3.4.4.2.8-1 1.6-1.9 2.6-2.7.9-.7 2-1.2 3-1.8.2-.1.1-.4-.2-.4zm8.7 3.7c-1.6-1.8-3.8-4.3-6.5-4-.2 0-.2.3 0 .3 2.6.2 4.3 2.5 6.3 3.9.2.1.4-.1.2-.2z" fill="#4a423a" stroke-width="none" opacity="1"></path><path id="SvgjsPath11289" d="M110.6 85.3c2 1.5 4.8.4 6.9-.2 2.8-.8 5.5-1.8 8.3-2.1 1.3-.2 2.7-.3 4-.1 1.6.2 2.7.9 4.1 1.6.1.1.2.1.3.1.3.3.8 0 .6-.4 0 0 0-.1-.1-.1 0-.1 0-.3-.1-.4l-.2-.2c-1-1.8-2.6-3.5-4.1-4.9-1.4-1.3-2.9-2.3-5-2.2-2.5.1-5.2 1-7.6 1.5-2.7.6-5.4 1.1-8 2-.2.1-.1.2.1.2 2.3-.2 4.6-.6 6.9-1.1-1.5 1.4-2.5 3.5-2.8 5.5-.1 0-.2 0-.3.1.1-.8.1-1.5.2-2.3.1-.8.5-1.6.5-2.4 0-.2-.3-.3-.4-.2-1 1.2-1.1 3.4-.8 4.9-.9.1-1.7 0-2.4-.7-.8-.9-.9-2.2-1.2-3.4-.1-.3-.5-.3-.6 0 0 1.7.2 3.8 1.7 4.8zm10.9-3.2c.5-.6.9-1.4 1.5-2 .6-.7 1.3-1.3 2-1.9-.5 1-.9 2.3-.8 3.3-.6.1-1.2.2-1.7.3-.3.2-.6.3-1 .3zm10.8 0c-1.6-.7-3.6-.9-5.4-.8.1-.2.2-.3.4-.5.4-.5.9-.8 1.3-1.2.1-.1.1-.4-.2-.4-1 .3-1.8 1.2-2.3 2.1-.3 0-.7.1-1 .1l.3-1.5c.2-.8.5-1.6.7-2.4 1.4.2 2.7.8 4 1.9.8.9 1.5 1.8 2.2 2.7zm-16.7.2c.6-1.2 1.4-2.2 2.1-3.3v-.1c2-.4 4-.9 6-1.2.4-.1.9-.1 1.3-.1-.9.5-1.7 1.2-2.4 1.9-.7.8-1.7 1.9-1.9 3-1.1.3-2.2.7-3.2 1.1 1-1.5 2.1-2.9 3.3-4.4.1-.2-.1-.3-.3-.2-1.6 1.2-2.9 3-3.7 4.8-.4.1-.9.3-1.3.4-.2.1-.4.1-.6.2.2-.8.4-1.5.7-2.1z" fill="#2c2219" stroke-width="none" opacity="1"></path></g></g></g><g id="svga-group-beardwrap"><g id="svga-group-beard-single-move" transform="matrix(1,0,0,1,0,0)"><g id="svga-group-beard-single"></g></g></g><g id="svga-group-mustache-single-move" transform="matrix(1,0,0,1,0,0)"><g id="svga-group-mustache-single"></g></g><g id="svga-group-nose-single-move" transform="matrix(1,0,0,1,0,0)"><g id="svga-group-nose-single"><path id="SvgjsPath11480" d="M105.06 106.65c.56.92 2.64 3.61 3.09 4.9.45 1.29-.13 3.22-1.48 3.61s-3.61-.39-3.93-.19c-.32.19-1.87 2.06-2.58 1.93-.71-.13-2.64-2.13-3.03-2.13-.39 0-2.13.45-2.97.45-.84 0-2.9-.71-2.64-2.51.26-1.81 2.45-5.54 2.9-6.06.45-.52 1.48-2.32 1.74-3.42s.58-7.03.71-8.38c.13-1.35 1.35-2.97 2.58-3.09 1.23-.13 3.35.77 3.55 2.9.19 2.13.58 6.38.77 8.12.19 1.74.58 2.71 1.29 3.87z" fill="#f0c7b1" stroke-width="none" opacity="1" transform="translate(0 1)"></path><path id="SvgjsPath11481" d="M97.62 85.76c-.84 3.5-.96 7.24-1.34 10.81-.4 3.83-1.14 7.78-1.09 11.63 0 .31.48.39.55.07.78-3.52.88-7.26 1.24-10.84.39-3.82 1.1-7.79.98-11.63 0-.18-.29-.24-.34-.04z" fill="#c27b55" stroke-width="none" opacity="1" transform="translate(0 1)"></path><path id="SvgjsPath11482" d="M94.46 106.19c-1.03 1.37-1.9 2.87-2.65 4.41-.49 1-1.09 2.17-.77 3.32.53 1.89 2.93 2.49 4.5 1.58.47-.27.26-.99-.27-1-.92-.01-1.98.28-2.72-.5-.88-.94-.01-2.63.38-3.57.58-1.39 1.28-2.72 1.83-4.12.07-.19-.2-.26-.3-.12z" fill="#c27b55" stroke-width="none" opacity="1" transform="translate(0 1)"></path><path id="SvgjsPath11483" d="M94.31 113.98c2.84-.21 3.38 3.37 6.07 3.45 2.31.07 2.5-3.41 4.69-3.3.26.01.34-.35.13-.47-2.49-1.47-2.95 2.86-5.24 2.59-1.36-.16-2.32-2.16-3.54-2.73-.83-.39-1.43-.36-2.23.02-.22.09-.11.46.12.44z" fill="#c27b55" stroke-width="none" opacity="1" transform="translate(0 1)"></path><path id="SvgjsPath11484" d="M104.29 115.6c1.87.42 4.05-.16 4.49-2.24.22-1.04-.13-2.07-.67-2.95-.89-1.44-2.03-2.66-2.87-4.15-.14-.25-.49-.12-.51.14-.11 1.67 1.13 2.83 2.02 4.12.82 1.19 1.53 2.83.15 4-.63.54-1.83.44-2.6.59-.26.04-.25.43-.01.49z" fill="#c27b55" stroke-width="none" opacity="1" transform="translate(0 1)"></path><path id="SvgjsPath11485" d="M102.45 109.98c-.41-.74-1.47-.85-2.06-.26-.05.05-.24.29-.3.36-.07.09-.2.26-.23.29-.07.1-.12.21-.18.32l-.12.28c0-.01-.01.01-.03.05-.06.06-.12.13-.18.2-.18.19-.36.38-.5.6-.42.67-.08 1.42.48 1.84.87.65 2.13.13 2.74-.61.76-.89.96-2.03.38-3.07z" fill="#f8d5c3" stroke-width="none" opacity="1" transform="translate(0 1)"></path></g></g><g id="svga-group-hair-front"><path id="SvgjsPath11527" d="M135.8 66.3c-1 3.3-1 5.1-.9 7.6.1 2.4-1 5.1 1.1 4.8 2.1-.3 4.4-.7 5.7-4.2 1.3-3.5 3-8.2 2.9-10-.1-1.8-3.7-9-3.7-9l-3.3 7.8-1.8 3z" fill="#756326" stroke-width="none" opacity="1"></path><path id="SvgjsPath11528" d="M143.8 74c.4-3.6 1-8.5.2-9.3-.8-.8-5.6 2.2-6 4.8s-.4 7.5-.4 7.5c-.7 2.7-.8 4-.7 5.8.1 1.8-1 3.9.7 3.6.1 0 .2 0 .2-.1-.3 2.3-.1 3.8.2 5.4.3 2.2-.7 4.5 1 4.6s2.7-.6 3.5-3.8c.8-3.2 1.3-6.4 1.4-9.5.1-2.5.2-6.3-.2-8.4.1-.2.1-.4.1-.6zm-81.6 6.8c-.5-1.6-.3-4-1-5.3s-3.5-6.4-3.5-6.4c-.9 1.8-2.3 3.9-2.3 7.1 0 2.7-.4 4.6.2 6.2-.1 1.2-.1 2.4 0 3.1.2 1.1 1.8 8.1 3.4 9.1 1.4.8 2.4-2.9 2.2-6.2 1.6-2.9 1.5-6.1 1-7.6z" fill="#6e5b1e" stroke-width="none" opacity="1"></path><path id="SvgjsPath11529" d="M59.3 61c-.9.8-2.3 3.2-2.7 5.7s-.4 5 .1 6.2c.6 1.1 3.6 7.3 5.6 6.3 2-1 1.3-3 1.1-6.2s.1-3.7-.7-6.4c-.8-2.8-3.4-5.6-3.4-5.6zm8.9-37.1c-.7-2.5 3 1.4 2.9 7.5-.1 6.2 1 10.6 3.8 13 2.8 2.4 13.2 11.2 13.2 11.2s-2.4.7-7.2-.7-11-3.5-14.2-7.6-2.3-10.2-.9-13.2c1.4-2.9 3.3-6.9 2.4-10.2zm51.4 32c2.2-.6 5.8-1.7 7.5-.6 1.6 1.1 1.7 4.7 5.3 4.6 3.6-.1 6.8-6.5 6.5-9.4-.2-2.9-2.4-7.8-5.9-9.1-3.5-1.3-3.1 2.6-3.5 4.1-.4 1.5.1 2.5-3.5 5.1-3.5 2.7-6.4 5.3-6.4 5.3z" fill="#756326" stroke-width="none" opacity="1"></path><path id="SvgjsPath11530" d="M131.3 58.4c-.2 1.1-.4 4.4 1.1 6.4s.6 4.3 3.8 3.1c3.2-1.2 6.9-5.4 6.6-8.5-.2-3.1-2.7-10.6-5.3-12-2.7-1.3-2.9 4.6-2.9 4.6l-3.3 6.4zM66.4 40c-1.8 2.1-4.9 2.8-4.2 6.5s5.4 7.7 9.8 8.3 7.7-.1 8.3-.6-9.6-6.2-9.6-6.2l-4.3-8z" fill="#7d6b2f" stroke-width="none" opacity="1"></path><path id="SvgjsPath11531" d="M62.8 45.5c-1.2 1-2.4 1.5-2.8 4.4-.4 2.9-.5 3.4 1.2 6.7 1.8 3.3 2 5.3 4.6 4.7 2.6-.6 5.5-2.9 5.2-6.5s-2.7-1.3-3.9-4.5-2.1-3.9-2.1-3.9l-2.2-.9z" fill="#756326" stroke-width="none" opacity="1"></path><path id="SvgjsPath11532" d="M60.9 52.2c-1.2 1.6-2.6 1.9-2.9 4.9s-1.3 2.9.7 6.4c2 3.5 4 7.7 5.9 5.7s1.6-3 1.9-5.4c.3-2.4-.6-4.9-1.7-7-1.2-2.2-3.9-4.6-3.9-4.6zm34.5 5s-6.4 0-10.1-1.8c-3.7-1.8-11.6-8.7-13.2-13.6s.4-14.4-.8-18.9c0 0 1.5 3.8 2.9 5.8s4.4 2 9.2 4.8 9.1 8.5 9.8 12.8 2.2 10.9 2.2 10.9z" fill="#6e5b1e" stroke-width="none" opacity="1"></path><path id="SvgjsPath11533" d="M73.7 18.1c-.1-.5-2 6.7 2 10.6S85.9 37 87.2 42.2s.9 6.1 2.3 9.3 3.2 6.4 5.8 7.6c2.6 1.2 7.4-.2 7.4-1s4.1 3.5 6.8 2.2c2.7-1.3 10.3-10.6 11.4-17.2s-2.4-13.6-6.8-14.7-21.6-2.4-25.2-4.3c-3.6-1.9-5.2-3.7-5.6-5.1 0 0-.3 3.4 3 7.4S96 33 96 33s4.7 1.2 5.3 5c0 0-8.2-6.4-15-8.9s-10-.9-12.6-11z" fill="#756326" stroke-width="none" opacity="1"></path><path id="SvgjsPath11534" d="M104.5 60.4s-4.2.3-5.8-4.5S98 42 95.1 37.1s-13.9-7.4-16.7-10.3c-2.7-2.9-3.8-9.3-3.8-9.3s2.7 7.9 6.7 8.4c3.9.5 17.3 4.9 21.7 6.9s9.1 10.3 8.2 15.5-2.5 12.6-6.7 12.1z" fill="#7d6b2f" stroke-width="none" opacity="1"></path><path id="SvgjsPath11535" d="M110.6 26.7c.6 0 10.8 2.9 15.9 4.5s17 10.3 4.4 17.8-8 8.8-20.3 10.9c-3.4.6 3.6-5.6 6.3-11 2.7-5.4 2.5-14.6 1-16.6s-7.3-5.6-7.3-5.6z" fill="#6e5b1e" stroke-width="none" opacity="1"></path><path id="SvgjsPath11536" d="M96.3 58.9c-3.5-3-5.5-6.7-6.4-11.2-.6-3.2-.3-6.8-1.7-9.7-.9-1.8-2.2-3-3.8-4.1-4.4-3.1-7.9-5-9.8-10.5-.1-.2-.4-.1-.3.1.8 3 2.2 5.6 4.6 7.6 4.2 3.7 8.6 4.8 9.5 11.3.8 6.3 1.6 13.5 7.9 16.8-.1 0 .1-.2 0-.3zm2.5-.6c-6.1-2.7-8.2-8.4-8.7-14.6 0-.2-.3-.2-.3 0-.2 6.2 2.7 12.8 8.9 14.9.2 0 .3-.2.1-.3zm3.5.5c-3.5-4-4.4-8.4-4.3-13.6.1-2.9.5-5.9-1.2-8.5-1.4-2.2-3.7-3.1-5.9-4.2-3.7-1.8-7.3-3.6-11-5.1-.1 0-.2.1-.1.2 3.5 2 7.2 3.7 10.8 5.5 2.8 1.4 5.2 2.4 6.3 6 .6 1.9.2 4.2.2 6.1-.2 5.5 1.1 9.9 5 13.8.1.2.4-.1.2-.2zm3.6-.3c-3.7-3.2-1.6-6.9-1.5-11 0-2.6-.7-4.9-2-7.1-.1-.2-.3 0-.2.1 1.1 2.4 1.7 4.9 1.6 7.5-.1 1.8-.8 3.5-.8 5.3-.1 2.3 1 4 2.8 5.3.1.2.2 0 .1-.1zm18.3-25.6c-.2-.1-.3.2-.1.3.8.3 1.6.5 2.4.8v.1c7.6 6.6-2.7 14.6-7.7 18.1-.2.1 0 .4.2.3 5.3-2.8 16-12.5 8.1-18.3 3.1 1.3 3.8 2 4.7 5.5.8 3.2.4 4.9-2 7.4-1.3 1.4-3.1 2.4-4.8 3.4-4.2 2.5-7.9 5.8-12.2 8.2-.1 0 0 .2.1.1 4.4-2 8.1-5.5 12.3-8 2.8-1.7 5.7-3.5 7.1-6.5 3-6.4-2.7-10-8.1-11.4zm-10.5-3.3c-.1 0-.2.2 0 .2 4.6 1 9.8 2.1 10.5 7.7.5 4-2.1 7.8-4.8 10.4-3.5 3.3-7.4 5.9-8.2 11-.1.4.5.6.6.2 1.5-8.6 12.7-10.9 13.2-20.3.4-6.8-5.6-8.8-11.3-9.2zm-1.1 8.2c-4.2-9.5-17.4-8.6-24.7-14.5-.1-.1-.3.1-.2.2 7.2 6.7 18.9 5.6 24.3 14.6.3.3.8 0 .6-.3zm25.8 14.3c-.1-.2-.4-.2-.4 0 .1 5.3-6.3 8.5-4.5 14 .1.2.4.1.3-.1-1.3-5.4 5.8-8.4 4.6-13.9zm3.1 7.4c0-.2-.3-.2-.4 0-.6 1.8-1 3.6-1.9 5.3-.8 1.4-1.9 2.5-2.6 3.9-1 2-1.1 4-.5 6.1.1.2.4.1.3-.1-.6-4 1.4-5.9 3.3-9.1 1.1-1.9 1.6-4 1.8-6.1zm.7 2c0-.3-.4-.2-.5.1-.2 2.2-.4 4.1-1.2 6.1-.1.2.2.4.3.2 1-1.9 1.7-4.2 1.4-6.4zm0 11.7c0-.2-.3-.2-.4-.1-.6 3-1.6 5.7-2.5 8.6-.6 1.9-.8 3.6 0 5.4.1.3.6.1.5-.2-1-2.8.3-5.1 1.2-7.7.8-1.9 1.2-3.9 1.2-6zm-.2 8c-.5 1.1-.6 2.5-.6 3.7 0 .2.4.2.4 0 0-1.2.3-2.3.5-3.5 0-.3-.2-.5-.3-.2zM86.9 53.1c-4.5-1.6-8.2-3.9-10.6-8.2-2.5-4.4-2.2-9-2.3-13.9 0-.3-.5-.3-.5 0-.9 9.7 2.8 20 13.3 22.4.3.1.3-.2.1-.3zm-8.6-2c-2.7-1.7-5.5-4.7-7-7.5-1.9-3.4-1.8-7.3-1.7-11.1 0-.3-.4-.3-.4 0-.5 7.7 1.7 15 9 18.9.1.1.3-.2.1-.3zm-3.7.1c-3.8-1.8-6.7-4.4-8.4-8.4-.1-.2-.5-.2-.4.1 1.2 4 4.4 7.7 8.6 8.7.2.1.4-.3.2-.4zm-4.3 1.6c-1.7-.7-3.3-1.5-4.8-2.5-.1-.1-.2.1-.1.2 1.5 1 3.1 1.9 4.9 2.5.1-.1.1-.2 0-.2zM66 57.6c-1.6-1.5-3.2-2.8-4.4-4.6-.1-.2-.4 0-.3.2 1.2 1.8 2.7 3.6 4.5 4.7.1 0 .3-.2.2-.3zm55.6-20.7c-.4-3.5-3.1-6.2-6.5-6.7-.2 0-.2.2-.1.2 4.1 1.4 7.1 5.1 5.7 9.7-.8 2.6-3 4.6-4.6 6.7-.1.1.1.2.2.1 2.6-2.9 5.8-5.7 5.3-10zm-10.2-3.3c-.2-.2-.4.1-.2.2 5.6 6.5.8 14.3-1.4 21.2-.1.2.2.3.3.1 2.6-6.6 7.5-15.5 1.3-21.5zm-16.7-.9c-.2 0-.3.2-.1.3 8.9 2.5 3.9 14.4 6.7 20.7.1.2.3 0 .3-.1-1.8-6.4 2.2-18.9-6.9-20.9z" fill="#8c7b43" stroke-width="none" opacity="1"></path></g><g id="svga-group-glasses-single-move" transform="matrix(1,0,0,1,0,0)"><g id="svga-group-glasses-single"></g></g></g></g></g><rect id="svga-credit-rect" width="200" height="15" x="0" y="185" fill="#ecf0f1" opacity="0.5" style="display: none;"></rect><text id="svga-credit-text" font-family="Avenir Next, Roboto, Helvetica, Arial, sans-serif" font-size="10px" text-anchor="start" font-weight="400" size="10px" anchor="start" weight="400" fill="#333333" x="33.40447998046875" y="182.60824704170227" style="display: none;"><tspan id="SvgjsTspan11278" dy="13" x="33.40447998046875">Created on AvatarMaker.com</tspan></text></g><defs id="SvgjsDefs11225"></defs></svg>