<svg id="visual" viewBox="0 0 1000 150" width="1000" height="150" xmlns="http://www.w3.org/2000/svg" xmlns:xlink="http://www.w3.org/1999/xlink" version="1.1"><rect x="0" y="0" width="1000" height="150" fill="#ffffff"></rect><path d="M0 43L33.3 49.8C66.7 56.7 133.3 70.3 200 70.8C266.7 71.3 333.3 58.7 400 50.2C466.7 41.7 533.3 37.3 600 40.8C666.7 44.3 733.3 55.7 800 63.2C866.7 70.7 933.3 74.3 966.7 76.2L1000 78L1000 0L966.7 0C933.3 0 866.7 0 800 0C733.3 0 666.7 0 600 0C533.3 0 466.7 0 400 0C333.3 0 266.7 0 200 0C133.3 0 66.7 0 33.3 0L0 0Z" fill="#f7f7f7" stroke-linecap="round" stroke-linejoin="miter"></path></svg>