<svg id="visual" viewBox="0 0 1000 150" width="1000" height="150" xmlns="http://www.w3.org/2000/svg" xmlns:xlink="http://www.w3.org/1999/xlink" version="1.1"><rect x="0" y="0" width="1000" height="150" fill="#ffffff"></rect><path d="M0 105L33.3 98.2C66.7 91.3 133.3 77.7 200 77.2C266.7 76.7 333.3 89.3 400 97.8C466.7 106.3 533.3 110.7 600 107.2C666.7 103.7 733.3 92.3 800 84.8C866.7 77.3 933.3 73.7 966.7 71.8L1000 70L1000 151L966.7 151C933.3 151 866.7 151 800 151C733.3 151 666.7 151 600 151C533.3 151 466.7 151 400 151C333.3 151 266.7 151 200 151C133.3 151 66.7 151 33.3 151L0 151Z" fill="#f7f7f7" stroke-linecap="round" stroke-linejoin="miter"></path></svg>